<svg width="138" height="138" viewBox="0 0 138 138" fill="none" xmlns="http://www.w3.org/2000/svg"><path d="M56.5 7.217a25 25 0 0 1 25 0l34.756 20.066a25 25 0 0 1 12.5 21.65v40.133a25 25 0 0 1-12.5 21.651L81.5 130.783a25 25 0 0 1-25 0l-34.756-20.066a25 25 0 0 1-12.5-21.65V48.933a25 25 0 0 1 12.5-21.65z" fill="#fff"/><path d="M128.756 88.532v.534a25 25 0 0 1-12.5 21.651L81.5 130.783a25 25 0 0 1-25 0l-34.756-20.066a25 25 0 0 1-1.668-1.053L17.5 101 26 68l7.5-12 22 22.5 27-40z" fill="#066c61"/><path d="M18.173 108.216a25 25 0 0 1-7.634-11.207L10.5 96.5c1.167-13 6.2-39.7 17-42.5 14-3.63 21 42.5 21 42.5s6.22-64.244 25.5-63c15.5 1 21.5 33 17.5 91.5l-.02.022-9.98 5.761a25 25 0 0 1-10.908 3.299c6.974-12.139 6.314-60.063 2.908-77.582-1.992 5.516-3.561 14-5.254 23.157-3.833 20.725-8.302 44.889-19.746 45.843a4.8 4.8 0 0 1-1.26-.063l-3.786-2.186C36.248 116.272 30.68 94.856 28.5 83c-.397 10.72-4.439 22.982-6.455 27.891l-.3-.174q-.393-.227-.773-.465z" fill="#b3dbc9"/></svg>